#N canvas 0 25 1440 847 12;
#X obj 85 335 pack 0 30;
#X floatatom 85 311 5 0 0 0 - - -;
#X obj 84 387 line~;
#X floatatom 91 87 5 0 0 0 - - -;
#X obj 165 302 spigot;
#X floatatom 189 266 5 0 0 0 - - -;
#X msg 154 189 1;
#X msg 198 197 0;
#X floatatom 197 104 5 0 0 0 - - -;
#X obj 194 128 sel 1;
#X obj 159 332 print;
#X floatatom 196 37 5 0 0 0 - - -;
#X obj 186 227 print;
#X floatatom 115 361 5 0 0 0 - - -;
#X obj 197 78 expr if($i1 > 0 \, 1 \, 0);
#X obj 216 166 delay;
#X obj 209 423 line~;
#X obj 210 392 pack 0 5;
#X obj 251 572 *~;
#X obj 200 630 dac~;
#X obj 116 16 r x15;
#X floatatom 122 50 5 0 0 0 - - -;
#X msg 246 132 300;
#X obj 78 568 vcf~ 5;
#X obj 96 536 +~ 480;
#X obj 96 509 *~ 200;
#X obj 96 480 osc~;
#X floatatom 166 453 5 0 0 0 - - -;
#X obj 82 423 osc~;
#X obj 94 451 r es1;
#X obj 520 565 vcf~ 5;
#X obj 538 477 osc~;
#X floatatom 585 446 5 0 0 0 - - -;
#X obj 392 551 dac~;
#X obj 538 506 *~ 400;
#X obj 538 533 +~ 600;
#X obj 521 613 *~;
#X obj 250 343 noise~;
#X obj 295 372 lop~;
#X floatatom 363 78 5 0 0 0 - - -;
#X obj 332 292 spigot;
#X floatatom 356 256 5 0 0 0 - - -;
#X msg 321 179 1;
#X msg 365 187 0;
#X floatatom 469 95 5 0 0 0 - - -;
#X obj 361 118 sel 1;
#X floatatom 468 28 5 0 0 0 - - -;
#X obj 353 217 print;
#X obj 469 69 expr if($i1 > 0 \, 1 \, 0);
#X obj 383 156 delay;
#X floatatom 394 41 5 0 0 0 - - -;
#X msg 413 122 300;
#X floatatom 330 332 5 0 0 0 - - -;
#X obj 388 7 r y15;
#X obj 408 438 line~;
#X obj 409 407 pack 0 5;
#X obj 390 487 *~;
#X obj 473 526 phasor~;
#X floatatom 474 498 5 0 0 0 - - -;
#X obj 526 665 dac~;
#X floatatom 518 180 5 0 0 0 - - -;
#X obj 575 398 spigot;
#X floatatom 599 362 5 0 0 0 - - -;
#X msg 564 285 1;
#X msg 608 293 0;
#X floatatom 624 197 5 0 0 0 - - -;
#X obj 604 224 sel 1;
#X floatatom 623 130 5 0 0 0 - - -;
#X obj 596 323 print;
#X obj 624 171 expr if($i1 > 0 \, 1 \, 0);
#X obj 626 262 delay;
#X floatatom 549 143 5 0 0 0 - - -;
#X msg 656 228 300;
#X obj 543 109 r z15;
#X obj 612 544 line~;
#X obj 613 513 pack 0 5;
#X obj 732 347 pack 0 30;
#X floatatom 732 323 5 0 0 0 - - -;
#X obj 731 399 line~;
#X floatatom 738 99 5 0 0 0 - - -;
#X obj 812 314 spigot;
#X floatatom 836 278 5 0 0 0 - - -;
#X msg 801 201 1;
#X msg 845 209 0;
#X floatatom 844 116 5 0 0 0 - - -;
#X obj 841 140 sel 1;
#X obj 806 344 print;
#X floatatom 843 49 5 0 0 0 - - -;
#X obj 833 239 print;
#X floatatom 762 373 5 0 0 0 - - -;
#X obj 844 90 expr if($i1 > 0 \, 1 \, 0);
#X obj 863 178 delay;
#X obj 856 435 line~;
#X obj 857 404 pack 0 5;
#X obj 898 584 *~;
#X obj 847 642 dac~;
#X floatatom 769 62 5 0 0 0 - - -;
#X msg 893 144 300;
#X obj 725 580 vcf~ 5;
#X obj 743 548 +~ 480;
#X obj 743 521 *~ 200;
#X obj 743 492 osc~;
#X floatatom 813 465 5 0 0 0 - - -;
#X obj 729 435 osc~;
#X obj 741 463 r es1;
#X obj 1167 577 vcf~ 5;
#X obj 1185 489 osc~;
#X floatatom 1232 458 5 0 0 0 - - -;
#X obj 1039 563 dac~;
#X obj 1185 518 *~ 400;
#X obj 1185 545 +~ 600;
#X obj 1168 625 *~;
#X obj 897 355 noise~;
#X obj 942 384 lop~;
#X floatatom 1010 90 5 0 0 0 - - -;
#X obj 979 304 spigot;
#X floatatom 1003 268 5 0 0 0 - - -;
#X msg 968 191 1;
#X msg 1012 199 0;
#X floatatom 1116 107 5 0 0 0 - - -;
#X obj 1008 130 sel 1;
#X floatatom 1115 40 5 0 0 0 - - -;
#X obj 1000 229 print;
#X obj 1116 81 expr if($i1 > 0 \, 1 \, 0);
#X obj 1030 168 delay;
#X floatatom 1041 53 5 0 0 0 - - -;
#X msg 1060 134 300;
#X floatatom 977 344 5 0 0 0 - - -;
#X obj 1055 450 line~;
#X obj 1056 419 pack 0 5;
#X obj 1037 499 *~;
#X obj 1120 538 phasor~;
#X floatatom 1121 510 5 0 0 0 - - -;
#X obj 1173 677 dac~;
#X floatatom 1165 192 5 0 0 0 - - -;
#X obj 1222 410 spigot;
#X floatatom 1246 374 5 0 0 0 - - -;
#X msg 1211 297 1;
#X msg 1255 305 0;
#X floatatom 1271 209 5 0 0 0 - - -;
#X obj 1251 236 sel 1;
#X floatatom 1270 142 5 0 0 0 - - -;
#X obj 1243 335 print;
#X obj 1271 183 expr if($i1 > 0 \, 1 \, 0);
#X obj 1273 274 delay;
#X floatatom 1196 155 5 0 0 0 - - -;
#X msg 1303 240 300;
#X obj 1259 556 line~;
#X obj 1260 525 pack 0 5;
#X obj 763 28 r x16;
#X obj 1035 19 r y16;
#X obj 1190 121 r z16;
#X connect 0 0 2 0;
#X connect 1 0 0 0;
#X connect 2 0 28 0;
#X connect 3 0 4 0;
#X connect 4 0 10 0;
#X connect 4 0 1 0;
#X connect 5 0 4 1;
#X connect 6 0 12 0;
#X connect 6 0 5 0;
#X connect 6 0 17 0;
#X connect 7 0 12 0;
#X connect 7 0 5 0;
#X connect 7 0 17 0;
#X connect 8 0 9 0;
#X connect 9 0 6 0;
#X connect 9 0 15 0;
#X connect 9 0 22 0;
#X connect 11 0 14 0;
#X connect 13 0 2 1;
#X connect 14 0 8 0;
#X connect 15 0 7 0;
#X connect 16 0 18 1;
#X connect 17 0 16 0;
#X connect 18 0 19 1;
#X connect 18 0 19 0;
#X connect 20 0 3 0;
#X connect 20 0 11 0;
#X connect 21 0 3 0;
#X connect 21 0 11 0;
#X connect 22 0 15 1;
#X connect 23 0 18 0;
#X connect 24 0 23 1;
#X connect 25 0 24 0;
#X connect 26 0 25 0;
#X connect 27 0 26 0;
#X connect 28 0 23 0;
#X connect 29 0 26 0;
#X connect 30 0 36 0;
#X connect 31 0 34 0;
#X connect 32 0 31 0;
#X connect 34 0 35 0;
#X connect 35 0 30 1;
#X connect 36 0 59 0;
#X connect 36 0 59 1;
#X connect 37 0 38 0;
#X connect 38 0 56 0;
#X connect 39 0 40 0;
#X connect 40 0 52 0;
#X connect 41 0 40 1;
#X connect 42 0 47 0;
#X connect 42 0 41 0;
#X connect 42 0 55 0;
#X connect 43 0 47 0;
#X connect 43 0 41 0;
#X connect 43 0 55 0;
#X connect 44 0 45 0;
#X connect 45 0 42 0;
#X connect 45 0 49 0;
#X connect 45 0 51 0;
#X connect 46 0 48 0;
#X connect 48 0 44 0;
#X connect 49 0 43 0;
#X connect 50 0 39 0;
#X connect 50 0 46 0;
#X connect 51 0 49 1;
#X connect 52 0 38 1;
#X connect 53 0 39 0;
#X connect 53 0 46 0;
#X connect 54 0 56 1;
#X connect 55 0 54 0;
#X connect 56 0 33 0;
#X connect 56 0 33 1;
#X connect 57 0 30 0;
#X connect 58 0 57 0;
#X connect 60 0 61 0;
#X connect 61 0 31 0;
#X connect 62 0 61 1;
#X connect 63 0 68 0;
#X connect 63 0 62 0;
#X connect 63 0 75 0;
#X connect 64 0 68 0;
#X connect 64 0 62 0;
#X connect 64 0 75 0;
#X connect 65 0 66 0;
#X connect 66 0 63 0;
#X connect 66 0 70 0;
#X connect 66 0 72 0;
#X connect 67 0 69 0;
#X connect 69 0 65 0;
#X connect 70 0 64 0;
#X connect 71 0 60 0;
#X connect 71 0 67 0;
#X connect 72 0 70 1;
#X connect 73 0 60 0;
#X connect 73 0 67 0;
#X connect 74 0 36 1;
#X connect 75 0 74 0;
#X connect 76 0 78 0;
#X connect 77 0 76 0;
#X connect 78 0 103 0;
#X connect 79 0 80 0;
#X connect 80 0 86 0;
#X connect 80 0 77 0;
#X connect 81 0 80 1;
#X connect 82 0 88 0;
#X connect 82 0 81 0;
#X connect 82 0 93 0;
#X connect 83 0 88 0;
#X connect 83 0 81 0;
#X connect 83 0 93 0;
#X connect 84 0 85 0;
#X connect 85 0 82 0;
#X connect 85 0 91 0;
#X connect 85 0 97 0;
#X connect 87 0 90 0;
#X connect 89 0 78 1;
#X connect 90 0 84 0;
#X connect 91 0 83 0;
#X connect 92 0 94 1;
#X connect 93 0 92 0;
#X connect 94 0 95 1;
#X connect 94 0 95 0;
#X connect 96 0 79 0;
#X connect 96 0 87 0;
#X connect 97 0 91 1;
#X connect 98 0 94 0;
#X connect 99 0 98 1;
#X connect 100 0 99 0;
#X connect 101 0 100 0;
#X connect 102 0 101 0;
#X connect 103 0 98 0;
#X connect 104 0 101 0;
#X connect 105 0 111 0;
#X connect 106 0 109 0;
#X connect 107 0 106 0;
#X connect 109 0 110 0;
#X connect 110 0 105 1;
#X connect 111 0 133 0;
#X connect 111 0 133 1;
#X connect 112 0 113 0;
#X connect 113 0 130 0;
#X connect 114 0 115 0;
#X connect 115 0 127 0;
#X connect 116 0 115 1;
#X connect 117 0 122 0;
#X connect 117 0 116 0;
#X connect 117 0 129 0;
#X connect 118 0 122 0;
#X connect 118 0 116 0;
#X connect 118 0 129 0;
#X connect 119 0 120 0;
#X connect 120 0 117 0;
#X connect 120 0 124 0;
#X connect 120 0 126 0;
#X connect 121 0 123 0;
#X connect 123 0 119 0;
#X connect 124 0 118 0;
#X connect 125 0 114 0;
#X connect 125 0 121 0;
#X connect 126 0 124 1;
#X connect 127 0 113 1;
#X connect 128 0 130 1;
#X connect 129 0 128 0;
#X connect 130 0 108 0;
#X connect 130 0 108 1;
#X connect 131 0 105 0;
#X connect 132 0 131 0;
#X connect 134 0 135 0;
#X connect 135 0 106 0;
#X connect 136 0 135 1;
#X connect 137 0 142 0;
#X connect 137 0 136 0;
#X connect 137 0 148 0;
#X connect 138 0 142 0;
#X connect 138 0 136 0;
#X connect 138 0 148 0;
#X connect 139 0 140 0;
#X connect 140 0 137 0;
#X connect 140 0 144 0;
#X connect 140 0 146 0;
#X connect 141 0 143 0;
#X connect 143 0 139 0;
#X connect 144 0 138 0;
#X connect 145 0 134 0;
#X connect 145 0 141 0;
#X connect 146 0 144 1;
#X connect 147 0 111 1;
#X connect 148 0 147 0;
#X connect 149 0 79 0;
#X connect 149 0 87 0;
#X connect 150 0 114 0;
#X connect 150 0 121 0;
#X connect 151 0 134 0;
#X connect 151 0 141 0;
