#N canvas 45 25 1395 791 12;
#X obj 85 335 pack 0 30;
#X floatatom 85 311 5 0 0 0 - - -;
#X obj 84 387 line~;
#X floatatom 91 87 5 0 0 0 - - -;
#X obj 165 302 spigot;
#X floatatom 189 266 5 0 0 0 - - -;
#X msg 154 189 1;
#X msg 198 197 0;
#X floatatom 197 104 5 0 0 0 - - -;
#X obj 194 128 sel 1;
#X obj 159 332 print;
#X floatatom 196 37 5 0 0 0 - - -;
#X obj 186 227 print;
#X floatatom 115 361 5 0 0 0 - - -;
#X obj 197 78 expr if($i1 > 0 \, 1 \, 0);
#X obj 216 166 delay;
#X obj 209 423 line~;
#X obj 210 392 pack 0 5;
#X obj 251 572 *~;
#X obj 200 630 dac~;
#X obj 116 16 r x15;
#X floatatom 122 50 5 0 0 0 - - -;
#X msg 246 132 300;
#X obj 78 568 vcf~ 5;
#X obj 96 536 +~ 480;
#X obj 96 509 *~ 200;
#X obj 96 480 osc~;
#X floatatom 164 449 5 0 0 0 - - -;
#X obj 82 423 osc~;
#X obj 94 451 r es1;
#X obj 497 552 dac~;
#X obj 355 344 noise~;
#X obj 400 373 lop~;
#X floatatom 363 78 5 0 0 0 - - -;
#X obj 437 293 spigot;
#X floatatom 461 257 5 0 0 0 - - -;
#X msg 426 180 1;
#X msg 470 188 0;
#X floatatom 469 95 5 0 0 0 - - -;
#X obj 466 119 sel 1;
#X floatatom 468 28 5 0 0 0 - - -;
#X obj 458 218 print;
#X obj 469 69 expr if($i1 > 0 \, 1 \, 0);
#X obj 488 157 delay;
#X floatatom 394 41 5 0 0 0 - - -;
#X msg 518 123 300;
#X floatatom 435 333 5 0 0 0 - - -;
#X obj 513 439 line~;
#X obj 514 408 pack 0 5;
#X obj 495 488 *~;
#X obj 696 340 pack 0 30;
#X floatatom 696 316 5 0 0 0 - - -;
#X obj 695 392 line~;
#X floatatom 702 92 5 0 0 0 - - -;
#X obj 776 307 spigot;
#X floatatom 800 271 5 0 0 0 - - -;
#X msg 765 194 1;
#X msg 809 202 0;
#X floatatom 808 109 5 0 0 0 - - -;
#X obj 805 133 sel 1;
#X obj 770 337 print;
#X floatatom 807 42 5 0 0 0 - - -;
#X obj 797 232 print;
#X floatatom 726 366 5 0 0 0 - - -;
#X obj 808 83 expr if($i1 > 0 \, 1 \, 0);
#X obj 827 171 delay;
#X obj 820 428 line~;
#X obj 821 397 pack 0 5;
#X obj 850 565 *~;
#X obj 811 635 dac~;
#X floatatom 733 55 5 0 0 0 - - -;
#X msg 857 137 300;
#X obj 689 573 vcf~ 5;
#X obj 707 541 +~ 480;
#X obj 707 514 *~ 200;
#X obj 707 485 osc~;
#X floatatom 775 454 5 0 0 0 - - -;
#X obj 693 428 osc~;
#X obj 388 7 r x16;
#X obj 727 21 r x16;
#X obj 705 456 r es2;
#X obj 907 264 +~;
#X obj 1034 314 +~ 0.5;
#X obj 1034 341 cos~;
#X obj 1033 369 *~ 0.5;
#X obj 1033 400 +~ 0.5;
#X obj 1096 401 vd~ harmonizer2;
#X obj 1078 430 *~;
#X obj 1217 349 +~ 0.5;
#X obj 1217 376 cos~;
#X obj 1216 404 *~ 0.5;
#X obj 1217 430 +~ 0.5;
#X obj 1279 436 vd~ harmonizer2;
#X obj 1261 465 *~;
#X obj 1285 265 +~ 0.5;
#X obj 1285 292 wrap~;
#X obj 1175 491 +~;
#X obj 1058 517 +~;
#X obj 1177 131 expr pow(2 \, $f1/12);
#X floatatom 1178 156 5 0 0 0 - - -;
#X floatatom 1178 203 5 0 0 0 - - -;
#X obj 1178 226 phasor~ -5;
#X obj 1095 371 *~ 50;
#X obj 1278 406 *~ 50;
#X obj 860 489 delwrite~ harmonizer2 50;
#X obj 1177 178 expr ($f1 - 4.0) * -50;
#X obj 1046 660 dac~;
#X obj 1060 561 *~;
#X obj 1153 573 line~;
#X obj 1154 542 pack 0 5;
#X msg 1172 96 3;
#X connect 0 0 2 0;
#X connect 1 0 0 0;
#X connect 2 0 28 0;
#X connect 3 0 4 0;
#X connect 4 0 10 0;
#X connect 4 0 1 0;
#X connect 5 0 4 1;
#X connect 6 0 12 0;
#X connect 6 0 5 0;
#X connect 6 0 17 0;
#X connect 7 0 12 0;
#X connect 7 0 5 0;
#X connect 7 0 17 0;
#X connect 8 0 9 0;
#X connect 9 0 6 0;
#X connect 9 0 15 0;
#X connect 9 0 22 0;
#X connect 11 0 14 0;
#X connect 13 0 2 1;
#X connect 14 0 8 0;
#X connect 15 0 7 0;
#X connect 16 0 18 1;
#X connect 17 0 16 0;
#X connect 18 0 19 0;
#X connect 20 0 3 0;
#X connect 20 0 11 0;
#X connect 21 0 3 0;
#X connect 21 0 11 0;
#X connect 22 0 15 1;
#X connect 23 0 18 0;
#X connect 24 0 23 1;
#X connect 25 0 24 0;
#X connect 26 0 25 0;
#X connect 27 0 26 0;
#X connect 28 0 23 0;
#X connect 29 0 26 0;
#X connect 31 0 32 0;
#X connect 32 0 49 0;
#X connect 33 0 34 0;
#X connect 34 0 46 0;
#X connect 35 0 34 1;
#X connect 36 0 41 0;
#X connect 36 0 35 0;
#X connect 36 0 48 0;
#X connect 37 0 41 0;
#X connect 37 0 35 0;
#X connect 37 0 48 0;
#X connect 38 0 39 0;
#X connect 39 0 36 0;
#X connect 39 0 43 0;
#X connect 39 0 45 0;
#X connect 40 0 42 0;
#X connect 42 0 38 0;
#X connect 43 0 37 0;
#X connect 44 0 33 0;
#X connect 44 0 40 0;
#X connect 45 0 43 1;
#X connect 46 0 32 1;
#X connect 47 0 49 1;
#X connect 48 0 47 0;
#X connect 49 0 30 1;
#X connect 49 0 30 0;
#X connect 50 0 52 0;
#X connect 51 0 50 0;
#X connect 52 0 77 0;
#X connect 53 0 54 0;
#X connect 54 0 60 0;
#X connect 54 0 51 0;
#X connect 55 0 54 1;
#X connect 56 0 62 0;
#X connect 56 0 55 0;
#X connect 56 0 67 0;
#X connect 56 0 109 0;
#X connect 56 0 110 0;
#X connect 57 0 62 0;
#X connect 57 0 55 0;
#X connect 57 0 67 0;
#X connect 57 0 109 0;
#X connect 58 0 59 0;
#X connect 59 0 56 0;
#X connect 59 0 65 0;
#X connect 59 0 71 0;
#X connect 61 0 64 0;
#X connect 63 0 52 1;
#X connect 64 0 58 0;
#X connect 65 0 57 0;
#X connect 66 0 68 1;
#X connect 67 0 66 0;
#X connect 68 0 69 1;
#X connect 70 0 53 0;
#X connect 70 0 61 0;
#X connect 71 0 65 1;
#X connect 72 0 68 0;
#X connect 72 0 81 0;
#X connect 73 0 72 1;
#X connect 74 0 73 0;
#X connect 75 0 74 0;
#X connect 76 0 75 0;
#X connect 77 0 72 0;
#X connect 78 0 33 0;
#X connect 78 0 40 0;
#X connect 79 0 53 0;
#X connect 79 0 61 0;
#X connect 80 0 75 0;
#X connect 81 0 97 0;
#X connect 81 0 104 0;
#X connect 82 0 83 0;
#X connect 83 0 84 0;
#X connect 84 0 85 0;
#X connect 85 0 87 0;
#X connect 86 0 87 1;
#X connect 87 0 96 0;
#X connect 88 0 89 0;
#X connect 89 0 90 0;
#X connect 90 0 91 0;
#X connect 91 0 93 0;
#X connect 92 0 93 1;
#X connect 93 0 96 1;
#X connect 94 0 95 0;
#X connect 95 0 88 0;
#X connect 95 0 103 0;
#X connect 96 0 97 1;
#X connect 97 0 107 0;
#X connect 98 0 99 0;
#X connect 99 0 105 0;
#X connect 100 0 101 0;
#X connect 101 0 94 0;
#X connect 101 0 82 0;
#X connect 101 0 102 0;
#X connect 102 0 86 0;
#X connect 103 0 92 0;
#X connect 105 0 100 0;
#X connect 107 0 106 0;
#X connect 107 0 106 1;
#X connect 108 0 107 1;
#X connect 109 0 108 0;
#X connect 110 0 98 0;
